<?xml version="1.0" encoding="utf-8"?>
<!-- Generator: Adobe Illustrator 23.0.1, SVG Export Plug-In . SVG Version: 6.00 Build 0)  -->
<svg version="1.1" xmlns="http://www.w3.org/2000/svg" xmlns:xlink="http://www.w3.org/1999/xlink" x="0px" y="0px"
	 viewBox="0 0 1597.4 502.5" style="enable-background:new 0 0 1597.4 502.5;" xml:space="preserve">
<style type="text/css">
	.st0{fill:#FFFFFF;stroke:#010101;stroke-width:4;stroke-miterlimit:10;}
	.st1{fill:#010101;stroke:#010101;stroke-miterlimit:10;}
	.st2{fill:#010101;stroke:#010101;stroke-width:4;stroke-miterlimit:10;}
	.st3{fill:none;stroke:#010101;stroke-width:4;stroke-miterlimit:10;}
	.st4{fill:#262C6B;}
	.st5{fill:#26276A;}
</style>
<g id="Panda">
	<ellipse class="st0" cx="879.4" cy="269.3" rx="234.1" ry="222"/>
	<ellipse class="st1" cx="708.1" cy="76.8" rx="62.8" ry="65.5"/>
	<ellipse class="st1" cx="1058" cy="76.8" rx="62.8" ry="65.5"/>
	
		<ellipse transform="matrix(0.3931 -0.9195 0.9195 0.3931 272.6073 881.6705)" class="st2" cx="804.2" cy="234.3" rx="81.2" ry="33.4"/>
	
		<ellipse transform="matrix(0.9025 -0.4307 0.4307 0.9025 -7.1192 437.1763)" class="st2" cx="962" cy="234.3" rx="33.5" ry="81.1"/>
	<ellipse class="st0" cx="804.2" cy="234.3" rx="19.6" ry="30"/>
	<ellipse class="st0" cx="962" cy="234.3" rx="20.5" ry="30"/>
	<path class="st1" d="M924.7,341.4l-48-48L834,339.8C864.4,342,894.2,339,924.7,341.4z"/>
	<path class="st3" d="M879.4,341.4c0,15.1,0,30.2,0,45.3c1.8,1.3,13.9,10.5,30,6.6c17.7-4.2,24.7-20.2,25.4-22.1"/>
	<path class="st3" d="M823.8,373.3c1.1,2,7.9,15.8,24,20.1c17.5,4.4,30.9-6.6,32.3-7.7"/>
</g>
<g id="Text">
	<g>
		<g>
			<path class="st4" d="M100.7,201.4c11.1,0,21.6,0,29.9-0.2c-1.5,7-3.9,24-5.7,34.6l-7.8,0.5c-0.9-20.9-3.9-25.7-18.5-25.7H81.1
				c-8,0-10.8,1-12.5,9.4l-8.7,45.4H79c18.3,0,19.1-2.6,25.4-17.9h7.7l-9,46.1h-7.7c0.3-16.9,0.4-18.9-18-18.9H57.8l-7.6,39.9
				c-3.2,15.6-1.9,20.5,12.3,20.5h13.7c12.7,0,17.8-1.6,23.6-6.8c5.1-4.6,11.3-12.5,16-21.2l7.4,2.8c-2.5,7.4-9.8,27-13.1,34.4h-111
				l1.7-7.2c18.2-1.6,20.5-2.9,23.8-20.2l17.2-88c3.3-17.2,1.8-18.8-16.4-20.3l1.9-7.3H100.7z"/>
			<path class="st4" d="M184.2,323.6c-12.9,16-28.1,23.5-35.9,23.5c-6.6,0-10.7-4.5-6.4-25.4c6.8-32.5,15.4-73.7,22.1-106.9
				c1.9-9.4,0.8-10.3-7.1-11.1c-2.1-0.1-5.7-0.7-7-0.7l1.7-6.6c12.6-1.5,24.1-3.7,30.8-5.9c3.8-1.4,5.9-1.8,7.3-1.8
				c2.4,0,2.6,2.3,1.5,7.5c-9,40.2-20,93.3-26.1,123.1c-1.2,5.7-1.1,8,0.7,8c1.8,0,7.6-2.9,14.6-10.4L184.2,323.6z"/>
			<path class="st4" d="M225.3,347.1c-12.4,0-26.7-6.9-26.7-33.2c0-20.6,8.8-43.6,25.6-56.5c9.3-6.9,22.1-12.9,33.3-12.9
				c14.8,0,22,8.6,22,18.7c0,22.7-33.1,32.1-55.8,36.3c-0.2,2.2-0.4,6.9-0.4,8.7c0,11.9,3.5,22.8,16,22.8c10.5,0,21.8-6.3,32.4-17.4
				l3.4,6.5C258.3,340.1,240.1,347.1,225.3,347.1z M224.6,291.6c26-5.6,33.2-15.1,33.3-26.2c0-7.3-4-10.8-9.7-10.8
				C242.1,254.5,229.5,260.7,224.6,291.6z"/>
			<path class="st4" d="M364.1,322c-14.4,16.7-31.3,25.1-46.3,25.1c-16.6,0-26.9-12.2-26.9-33.1c0-18.5,7.8-39.2,23.4-53.1
				c9.9-9,25.6-16.4,37.1-16.4c10.4,0,18.2,4.3,18.4,10.5c0.2,5-4.1,11.5-8.8,13.4c-2.4,1-4.3,0.7-6.1-1.3c-6.1-7.4-11-11.5-17-11.5
				c-12.9,0-21.8,26-21.8,52.1c0,16.1,5.9,23.2,15.1,23.2c10.4,0,21.1-7.2,29.2-15.3L364.1,322z"/>
			<path class="st4" d="M442.1,256.1c-3.7,0.4-15,1.2-21.4,1.3c-10.2,48.3-11,51.5-12.8,62c-1.4,7.7-0.2,9.5,1.8,9.5
				c4.3,0,11.5-5.1,18.8-13l3.3,6.4c-8,11.4-25.3,24.8-37.5,24.8c-9.4,0-13.6-7.1-8.2-31.6l12.5-58h-17.3l-0.3-2l6.7-8.3h13.2
				l4.9-23.1c6.1-3.1,17.6-9.5,23.2-14.1l2.8,1.7c-2.5,8.2-6.4,24.1-8.9,35.5h23.7L442.1,256.1z"/>
			<path class="st4" d="M447.8,266.4c11.7-13.4,24.4-21.9,33.3-21.9c7.8,0,9.4,10.2,4.5,31.3l-1.2,5.2
				c11.3-19.8,25.3-36.5,35.4-36.5c6.6,0,11.4,5.5,11.4,11.2c0,6.3-5.6,14.3-10.3,17.4c-2.3,1.5-4,1.5-5.3,0
				c-3.1-3.4-5.9-6.5-8.7-6.5c-5.9,0-17,18.5-20.3,24.9c-6.1,11.9-10.2,32.7-13.9,50.9c-7.1,0.9-16.1,2.9-22.1,4.7l-1.7-1.8
				c5.4-21.5,12.3-51,15.3-66.9c2.7-13,2-14.9,0.4-14.9c-1.9,0-7.8,3.7-13.7,9.4L447.8,266.4z"/>
			<path class="st4" d="M627,279.8c0,22.7-10.9,46.1-31.5,58.5c-8.2,5-18.3,8.8-28.9,8.8c-24.5,0-32.1-18.7-32.1-35.5
				c0-30.9,17.4-52.9,38.7-62.2c7.2-3.1,15.6-4.9,22.2-4.9C616.2,244.5,627,258.2,627,279.8z M559.8,311.6
				c0,16.8,5.6,25.8,15.3,25.8c17.2,0,26.9-32.4,26.9-58.3c0-17.5-6.2-25.1-15-25.1C566.6,254,559.8,293.3,559.8,311.6z"/>
		</g>
	</g>
	<g>
		<g>
			<path class="st5" d="M1139.1,303.1c2.2,16.5,10,35.8,33.4,35.8c15.8,0,24.7-10.1,24.7-24.9c0-12-6.4-20.4-18.6-29.3l-7.3-5.4
				c-12-8.9-25.2-20.3-25.2-39c0-24,18.3-41.9,48-41.9c16.7,0,30.6,4.5,35.6,6c-2,8.8-3.3,20.8-4.5,33.2l-7.6,0.6
				c-0.5-15.2-4.6-31.5-25.8-31.5c-15.4,0-23,10.9-23,24.3c0,11.3,5.8,18,17.5,26.4l7.6,5.5c15.3,11.1,27.6,22.5,27.6,40.8
				c0,26-22.3,44.2-51.3,44.2c-18.9,0-34.1-6.8-40.1-10.3c0.5-5.4,1.1-18,1.6-33.5L1139.1,303.1z"/>
			<path class="st5" d="M1251.2,196.5c13-1.5,23.8-4,30.8-5.9c3.6-1,6-1.8,7.3-1.8c2.3,0,2.8,2.5,1.7,7.4c-5.4,26-12.4,58-18,84
				c14.2-19.4,35.5-35.7,50.5-35.7c8.2,0,16.2,3.9,9.4,32.9c-2.9,12.5-7,29.4-10.1,42c-1.4,5.8-1.2,8.2,0.6,8.2
				c2,0,7.4-2.9,14.3-10.1l3.6,6.4c-12.1,15-28.8,23.2-36.5,23.2c-7,0-9.9-5.5-6-22.3c4-15.6,8.7-34.2,11.8-48.2
				c2.9-11.4,1.6-14.7-2.4-14.7c-8,0-21.2,9.7-32.5,28.9c-4.6,7.4-6.4,13.3-8.2,20.6c-2.1,9.2-4.8,22.8-6.3,31.1
				c-7.5,0.9-15.6,2.8-22.6,4.6l-1.4-1.8c9.2-42,18.3-87,26.6-130.8c1.6-9.2,0.6-9.7-6.9-10.5c-2.1-0.2-6.1-0.7-7.4-0.7
				L1251.2,196.5z"/>
			<path class="st5" d="M1448.5,279.8c0,22.7-10.9,46.1-31.5,58.5c-8.2,5-18.3,8.8-28.9,8.8c-24.5,0-32.1-18.7-32.1-35.5
				c0-30.9,17.4-52.9,38.7-62.2c7.2-3.1,15.6-4.9,22.2-4.9C1437.7,244.5,1448.5,258.2,1448.5,279.8z M1381.3,311.6
				c0,16.8,5.6,25.8,15.3,25.8c17.2,0,26.9-32.4,26.9-58.3c0-17.5-6.2-25.1-15-25.1C1388.1,254,1381.3,293.3,1381.3,311.6z"/>
			<path class="st5" d="M1509.1,246.9c6.9-1.8,13.5-2.4,20-2.4c23.5,0,32.8,11.4,32.8,31.1c0,14.5-6.2,32.3-18.9,46.1
				c-10.8,12-27,21.9-42.2,25.4c-3.8,0-7.6-0.4-12-2.1l-5.3,27.9c-2.3,11.2-1.5,13.2,10,14.4l6,0.7l-1.3,7l-57.8,2.6l1.4-7
				c14.7-2.4,15.9-3.8,19.1-18c8.1-37.1,15.3-73.7,22.6-109.6c-6.5,2.1-12.3,5-17.2,7.6l-1.8-7c6.9-4.3,14.3-7.9,21.3-10.9l2.3-9.4
				c5-5.3,15.5-11.9,22.9-15.2l2.3,1.7L1509.1,246.9z M1492.5,329.7c2.2,3.7,7.3,7.2,11.7,7c13.5,0,32.3-29.9,32.5-57.9
				c0-18.5-9.1-22.8-20.2-22.8c-3.6,0-6.3,0.5-9.7,1.3C1502.6,278.9,1496.7,307.8,1492.5,329.7z"/>
		</g>
	</g>
</g>
</svg>
